# Blender v3.0.1 OBJ File: ''
# www.blender.org
mtllib Triangle_0.mtl
o Cube_Cube.001
v -1.000000 -0.093417 1.000000
v -1.000000 0.093417 1.000000
v -1.000000 -0.093417 -1.000000
v -1.000000 0.093417 -1.000000
v 1.905637 -0.093417 0.000000
v 1.905637 0.093417 0.000000
vt 0.375000 0.000000
vt 0.625000 0.000000
vt 0.625000 0.250000
vt 0.375000 0.250000
vt 0.625000 0.500000
vt 0.375000 0.500000
vt 0.375000 0.750000
vt 0.625000 0.750000
vt 0.625000 1.000000
vt 0.375000 1.000000
vt 0.125000 0.500000
vt 0.125000 0.750000
vt 0.875000 0.500000
vt 0.875000 0.750000
vn -1.0000 0.0000 0.0000
vn 0.3254 0.0000 -0.9456
vn 0.3254 0.0000 0.9456
vn 0.0000 -1.0000 0.0000
vn 0.0000 1.0000 0.0000
usemtl None
s off
f 1/1/1 2/2/1 4/3/1 3/4/1
f 3/4/2 4/3/2 6/5/2 5/6/2
f 5/7/3 6/8/3 2/9/3 1/10/3
f 3/11/4 5/7/4 1/12/4
f 6/5/5 4/13/5 2/14/5
