# Blender v2.93.4 OBJ File: ''
# www.blender.org
mtllib Blue_Barrel.mtl
o Blue_Barrel_wTube.001
v 0.666817 0.000000 -0.000000
v 0.471510 0.000000 -0.471510
v 0.000000 0.000000 -0.666817
v -0.471511 0.000000 -0.471510
v -0.666817 0.000000 -0.000000
v -0.471511 0.000000 0.471510
v 0.000000 0.000000 0.666816
v 0.471511 0.000000 0.471510
v 0.705117 2.202832 -0.000000
v 0.498593 2.202832 -0.498593
v 0.000000 2.202832 -0.705117
v -0.498593 2.202832 -0.498593
v -0.705117 2.202832 -0.000000
v -0.498593 2.202832 0.498593
v 0.000000 2.202832 0.705117
v 0.498593 2.202832 0.498593
v 0.000000 0.000000 0.000000
v 0.664576 2.357846 -0.000000
v 0.813918 1.737735 0.000000
v 0.575527 1.737735 -0.575527
v 0.000000 1.737735 -0.813918
v -0.575527 1.737735 -0.575527
v -0.813918 1.737735 -0.000000
v -0.575527 1.737735 0.575527
v 0.000000 1.737735 0.813918
v 0.575527 1.737735 0.575527
v 0.813918 0.609870 0.000000
v 0.575527 0.609870 -0.575527
v 0.000000 0.609870 -0.813918
v -0.575527 0.609870 -0.575527
v -0.813918 0.609870 -0.000000
v -0.575527 0.609870 0.575527
v 0.000000 0.609870 0.813918
v 0.575527 0.609870 0.575527
v 0.737161 2.253129 -0.000000
v -0.521251 2.253129 -0.521251
v -0.737161 2.253129 -0.000000
v 0.521251 2.253129 -0.521251
v -0.521251 2.253129 0.521251
v 0.000000 2.253129 -0.737161
v 0.000000 2.253129 0.737161
v 0.521252 2.253129 0.521251
v 0.000000 2.357846 -0.000000
v -0.469927 2.357846 -0.469926
v -0.664576 2.357846 -0.000000
v 0.469926 2.357846 -0.469927
v -0.469927 2.357846 0.469926
v 0.000000 2.357846 -0.664576
v 0.000000 2.357846 0.664576
v 0.469927 2.357846 0.469926
vt 0.249153 0.353814
vt 0.373729 0.353814
vt 0.373729 0.450098
vt 0.249153 0.450098
vt 0.498305 0.353814
vt 0.498305 0.450098
vt 0.622882 0.353814
vt 0.622882 0.450098
vt 0.747458 0.353814
vt 0.747458 0.450098
vt 0.872034 0.353814
vt 0.872034 0.450098
vt 0.996610 0.353814
vt 0.996610 0.450098
vt 0.000000 0.353814
vt 0.124576 0.353814
vt 0.124576 0.450098
vt 0.000000 0.450098
vt 0.656354 0.902197
vt 0.726707 0.732349
vt 0.797060 0.902197
vt 0.622882 0.462119
vt 0.498305 0.462119
vt 0.896554 0.802702
vt 0.996610 0.462119
vt 0.872034 0.462119
vt 0.896554 0.661996
vt 0.747458 0.462119
vt 0.797060 0.562502
vt 0.373729 0.462119
vt 0.656354 0.562502
vt 0.556860 0.661996
vt 0.249153 0.462119
vt 0.556860 0.802702
vt 0.124576 0.462119
vt 0.000000 0.462119
vt 0.124576 0.126462
vt 0.249153 0.126462
vt 0.000000 0.126462
vt 0.872034 0.126462
vt 0.996610 0.126462
vt 0.747458 0.126462
vt 0.622882 0.126462
vt 0.498305 0.126462
vt 0.373729 0.126462
vt 0.249153 0.000000
vt 0.373729 0.000000
vt 0.498305 0.000000
vt 0.622882 0.000000
vt 0.747458 0.000000
vt 0.872034 0.000000
vt 0.996610 0.000000
vt 0.000000 0.000000
vt 0.124576 0.000000
vt 0.622882 0.487803
vt 0.498305 0.487803
vt 0.996610 0.487803
vt 0.872034 0.487803
vt 0.124576 0.487803
vt 0.000000 0.487803
vt 0.249153 0.487803
vt 0.373729 0.487803
vt 0.747458 0.487803
vt 0.199417 0.531628
vt 0.374892 0.531628
vt 0.287154 0.743446
vt 0.498973 0.655708
vt 0.498973 0.831184
vt 0.374893 0.955264
vt 0.199417 0.955264
vt 0.075337 0.831184
vt 0.075337 0.655708
vn 0.9938 0.1116 -0.0000
vn 0.7027 0.1116 -0.7027
vn 0.6948 -0.1860 -0.6948
vn 0.9825 -0.1860 -0.0000
vn -0.0000 0.1116 -0.9938
vn -0.0000 -0.1860 -0.9825
vn -0.7027 0.1116 -0.7027
vn -0.6948 -0.1860 -0.6948
vn -0.9938 0.1116 -0.0000
vn -0.9825 -0.1860 -0.0000
vn -0.7027 0.1116 0.7027
vn -0.6948 -0.1860 0.6948
vn -0.0000 0.1116 0.9938
vn 0.0000 -0.1860 0.9825
vn 0.7027 0.1116 0.7027
vn 0.6948 -0.1860 0.6948
vn 0.0000 -1.0000 0.0000
vn -0.5964 -0.5373 -0.5964
vn -0.0000 -0.5373 -0.8434
vn 0.0000 -0.5373 0.8434
vn -0.5964 -0.5373 0.5964
vn -0.8434 -0.5373 -0.0000
vn 0.5964 -0.5373 -0.5964
vn 0.8434 -0.5373 0.0000
vn 0.5964 -0.5373 0.5964
vn 0.7024 -0.1148 0.7024
vn 0.9934 -0.1148 -0.0000
vn 0.0000 -0.1148 0.9934
vn -0.7024 -0.1148 0.7024
vn -0.9934 -0.1148 -0.0000
vn -0.7024 -0.1148 -0.7024
vn -0.0000 -0.1148 -0.9934
vn 0.7024 -0.1148 -0.7024
vn 0.9721 -0.2345 -0.0000
vn 0.6874 -0.2345 -0.6874
vn -0.0000 -0.2345 -0.9721
vn -0.6874 -0.2345 -0.6874
vn -0.9721 -0.2345 -0.0000
vn -0.6874 -0.2345 0.6874
vn 0.0000 -0.2345 0.9721
vn 0.6874 -0.2345 0.6874
vn 0.0000 0.5697 -0.8219
vn -0.5812 0.5697 -0.5812
vn -0.5812 0.5697 0.5812
vn 0.0000 0.5697 0.8219
vn 0.5812 0.5697 0.5812
vn 0.8219 0.5697 0.0000
vn 0.5812 0.5697 -0.5812
vn -0.8219 0.5697 -0.0000
vn 0.0000 1.0000 0.0000
usemtl Blue_Barrel
s 1
f 19/1/1 20/2/2 10/3/3 9/4/4
f 20/2/2 21/5/5 11/6/6 10/3/3
f 21/5/5 22/7/7 12/8/8 11/6/6
f 22/7/7 23/9/9 13/10/10 12/8/8
f 23/9/9 24/11/11 14/12/12 13/10/10
f 24/11/11 25/13/13 15/14/14 14/12/12
f 25/15/13 26/16/15 16/17/16 15/18/14
f 26/16/15 19/1/1 9/4/4 16/17/16
f 1/19/17 17/20/17 2/21/17
f 11/6/6 12/8/8 36/22/18 40/23/19
f 2/21/17 17/20/17 3/24/17
f 14/12/12 15/14/14 41/25/20 39/26/21
f 3/24/17 17/20/17 4/27/17
f 12/8/8 13/10/10 37/28/22 36/22/18
f 4/27/17 17/20/17 5/29/17
f 10/3/3 11/6/6 40/23/19 38/30/23
f 5/29/17 17/20/17 6/31/17
f 13/10/10 14/12/12 39/26/21 37/28/22
f 6/31/17 17/20/17 7/32/17
f 9/4/4 10/3/3 38/30/23 35/33/24
f 7/32/17 17/20/17 8/34/17
f 15/18/14 16/17/16 42/35/25 41/36/20
f 8/34/17 17/20/17 1/19/17
f 16/17/16 9/4/4 35/33/24 42/35/25
f 34/37/26 27/38/27 19/1/1 26/16/15
f 33/39/28 34/37/26 26/16/15 25/15/13
f 32/40/29 33/41/28 25/13/13 24/11/11
f 31/42/30 32/40/29 24/11/11 23/9/9
f 30/43/31 31/42/30 23/9/9 22/7/7
f 29/44/32 30/43/31 22/7/7 21/5/5
f 28/45/33 29/44/32 21/5/5 20/2/2
f 27/38/27 28/45/33 20/2/2 19/1/1
f 1/46/34 2/47/35 28/45/33 27/38/27
f 2/47/35 3/48/36 29/44/32 28/45/33
f 3/48/36 4/49/37 30/43/31 29/44/32
f 4/49/37 5/50/38 31/42/30 30/43/31
f 5/50/38 6/51/39 32/40/29 31/42/30
f 6/51/39 7/52/40 33/41/28 32/40/29
f 7/53/40 8/54/41 34/37/26 33/39/28
f 8/54/41 1/46/34 27/38/27 34/37/26
f 40/23/42 36/22/43 44/55/43 48/56/42
f 39/26/44 41/25/45 49/57/45 47/58/44
f 41/36/45 42/35/46 50/59/46 49/60/45
f 42/35/46 35/33/47 18/61/47 50/59/46
f 38/30/48 40/23/42 48/56/42 46/62/48
f 36/22/43 37/28/49 45/63/49 44/55/43
f 37/28/49 39/26/44 47/58/44 45/63/49
f 35/33/47 38/30/48 46/62/48 18/61/47
f 18/64/50 46/65/50 43/66/50
f 46/65/50 48/67/50 43/66/50
f 48/67/50 44/68/50 43/66/50
f 44/68/50 45/69/50 43/66/50
f 45/69/50 47/70/50 43/66/50
f 47/70/50 49/71/50 43/66/50
f 49/71/50 50/72/50 43/66/50
f 50/72/50 18/64/50 43/66/50
